<svg xmlns="http://www.w3.org/2000/svg" xmlns:xlink="http://www.w3.org/1999/xlink" width="6912" zoomAndPan="magnify" viewBox="0 0 5184 1499.999933" height="2000" preserveAspectRatio="xMidYMid meet" version="1.0"><defs><g/><clipPath id="bad9083d6c"><path d="M 192 444 L 1111 444 L 1111 1350.277344 L 192 1350.277344 Z M 192 444 " clip-rule="nonzero"/></clipPath><clipPath id="df8c4ede27"><path d="M 777 167.527344 L 952 167.527344 L 952 343 L 777 343 Z M 777 167.527344 " clip-rule="nonzero"/></clipPath></defs><g clip-path="url(#bad9083d6c)"><path fill="#4dd1c1" d="M 700.402344 1350.289062 C 684.304688 1350.289062 668.105469 1348.257812 651.75 1344.175781 C 602.339844 1331.835938 554.253906 1304.417969 506.695312 1269.109375 C 545.3125 1273.382812 585.199219 1274.808594 624.972656 1274.808594 C 643.992188 1274.808594 662.992188 1274.476562 681.824219 1273.984375 C 760.203125 1270.191406 835.527344 1263.5 899.429688 1243.335938 C 898.773438 1244.035156 898.144531 1244.726562 897.5 1245.421875 C 832.386719 1315.011719 767.40625 1350.289062 700.402344 1350.289062 M 222.507812 960.902344 C 218.257812 952.347656 214.347656 943.726562 210.8125 935 C 173.5 843.089844 193.164062 753.0625 273.914062 666.769531 C 290.003906 649.464844 308.644531 632.316406 329.46875 615.664062 C 263.578125 732.640625 227.492188 858.429688 222.507812 960.902344 M 1070.960938 945.375 C 1062.324219 833.042969 1021.277344 691.539062 945.945312 567.039062 C 916.457031 518.300781 883.59375 476.90625 848.445312 444.257812 C 922.925781 450.644531 985.710938 474.578125 1029.585938 516.214844 C 1110.332031 589.492188 1129.996094 719.914062 1092.679688 871.515625 C 1086.519531 896.582031 1079.210938 921.257812 1070.960938 945.375 " fill-opacity="1" fill-rule="nonzero"/></g><path fill="#fd6848" d="M 506.695312 1269.109375 C 457.15625 1263.617188 409.710938 1253.414062 367.257812 1235.476562 C 275.882812 1196.863281 226.125 1119.296875 222.199219 1001.175781 C 221.726562 988.234375 221.832031 974.773438 222.507812 960.902344 C 263.097656 1042.574219 334.636719 1116.929688 406.003906 1184.648438 C 439.503906 1215.058594 472.972656 1244.058594 506.695312 1269.109375 M 899.429688 1243.335938 C 964.578125 1172.554688 1029.667969 1065.949219 1070.960938 945.375 C 1071.589844 953.558594 1072.042969 961.574219 1072.324219 969.4375 C 1076.25 1087.558594 1043.023438 1168.21875 968.390625 1213.023438 C 947.464844 1225.59375 924.316406 1235.488281 899.429688 1243.335938 M 329.46875 615.664062 C 334.414062 606.878906 339.527344 598.152344 344.808594 589.476562 C 429.984375 449.703125 541.414062 363.25 650.066406 360.417969 C 653.523438 360.242188 656.988281 360.160156 660.433594 360.160156 C 726.035156 360.160156 790.351562 390.273438 848.445312 444.257812 C 834.886719 443.089844 820.9375 442.511719 806.640625 442.511719 C 758.371094 442.511719 706.179688 449.140625 651.75 462.355469 C 525.144531 493.078125 410.671875 550.683594 329.46875 615.664062 " fill-opacity="1" fill-rule="nonzero"/><path fill="#3684b8" d="M 624.972656 1274.808594 C 585.199219 1274.808594 545.3125 1273.382812 506.695312 1269.109375 C 472.972656 1244.058594 439.503906 1215.058594 406.003906 1184.648438 C 334.636719 1116.929688 263.097656 1042.574219 222.507812 960.902344 C 227.492188 858.429688 263.578125 732.640625 329.46875 615.664062 C 410.671875 550.683594 525.144531 493.078125 651.75 462.355469 C 706.179688 449.140625 758.371094 442.511719 806.640625 442.511719 C 820.9375 442.511719 834.886719 443.089844 848.445312 444.257812 C 883.59375 476.90625 916.457031 518.300781 945.945312 567.039062 C 1021.277344 691.539062 1062.324219 833.042969 1070.960938 945.375 C 1029.667969 1065.949219 964.578125 1172.554688 899.429688 1243.335938 C 835.527344 1263.5 760.203125 1270.191406 681.824219 1273.984375 C 662.992188 1274.476562 643.992188 1274.808594 624.972656 1274.808594 " fill-opacity="1" fill-rule="nonzero"/><g clip-path="url(#df8c4ede27)"><path fill="#4dd1c1" d="M 864.441406 342.226562 C 816.1875 342.226562 777.070312 303.121094 777.070312 254.871094 C 777.070312 206.621094 816.1875 167.515625 864.441406 167.515625 C 912.6875 167.515625 951.800781 206.621094 951.800781 254.871094 C 951.800781 303.121094 912.6875 342.226562 864.441406 342.226562 " fill-opacity="1" fill-rule="nonzero"/></g><path fill="#fd6848" d="M 1039.164062 474.757812 C 1015.035156 474.757812 995.488281 455.195312 995.488281 431.070312 C 995.488281 406.945312 1015.035156 387.402344 1039.164062 387.402344 C 1063.289062 387.402344 1082.847656 406.945312 1082.847656 431.070312 C 1082.847656 455.195312 1063.289062 474.757812 1039.164062 474.757812 " fill-opacity="1" fill-rule="nonzero"/><path fill="#ffffff" d="M 918.890625 795.417969 L 549.042969 581.886719 C 505.160156 556.550781 450.304688 588.230469 450.304688 638.890625 L 450.304688 1065.941406 C 450.304688 1116.59375 505.160156 1148.273438 549.042969 1122.941406 L 918.890625 909.421875 C 962.78125 884.085938 962.78125 820.738281 918.890625 795.417969 " fill-opacity="1" fill-rule="nonzero"/><g fill="#355c7d" fill-opacity="1"><g transform="translate(1174.852283, 1095.682615)"><g><path d="M 7.90625 -154.152344 C 10.539062 -48.089844 79.710938 9.222656 189.070312 9.222656 C 283.273438 9.222656 348.492188 -23.714844 365.621094 -104.746094 C 368.253906 -119.898438 364.304688 -128.460938 351.128906 -130.4375 C 338.609375 -131.753906 330.707031 -125.167969 327.410156 -110.675781 C 318.1875 -69.171875 286.566406 -46.773438 245.066406 -46.773438 C 199.609375 -47.433594 166.011719 -75.101562 150.199219 -145.589844 C 134.390625 -215.417969 150.199219 -273.390625 179.847656 -279.320312 C 255.605469 -295.132812 176.550781 -176.550781 274.710938 -167.328125 C 331.363281 -162.058594 362.328125 -191.703125 358.375 -228.59375 C 353.761719 -279.320312 290.519531 -317.53125 198.292969 -317.53125 C 88.933594 -317.53125 5.269531 -260.875 7.90625 -154.152344 Z M 7.90625 -154.152344 "/></g></g></g><g fill="#355c7d" fill-opacity="1"><g transform="translate(1559.532457, 1095.682615)"><g><path d="M 15.8125 -251.652344 C 24.375 -251.652344 35.574219 -253.628906 44.136719 -253.628906 C 53.359375 -253.628906 59.949219 -250.992188 59.949219 -240.453125 L 59.949219 -64.558594 C 59.949219 -52.703125 52.703125 -41.503906 42.160156 -36.234375 C 36.890625 -33.597656 32.28125 -30.960938 28.984375 -28.328125 C 17.785156 -20.421875 23.714844 0 36.890625 0 L 227.9375 0 C 241.113281 0 247.699219 -20.421875 236.5 -28.328125 C 232.546875 -30.960938 228.59375 -33.597656 225.300781 -35.574219 C 214.761719 -42.160156 208.171875 -53.359375 208.171875 -64.558594 L 208.171875 -243.746094 C 208.171875 -302.378906 187.09375 -310.285156 135.050781 -310.285156 C 92.886719 -310.285156 40.84375 -299.742188 11.199219 -282.613281 C -1.976562 -275.367188 1.316406 -252.96875 15.8125 -251.652344 Z M 34.257812 -432.15625 C 34.257812 -387.359375 67.195312 -361.007812 123.191406 -361.007812 C 179.1875 -361.007812 211.46875 -387.359375 211.46875 -432.15625 C 211.46875 -476.296875 179.1875 -501.988281 123.191406 -501.988281 C 67.195312 -501.988281 34.257812 -476.296875 34.257812 -432.15625 Z M 34.257812 -432.15625 "/></g></g></g><g fill="#355c7d" fill-opacity="1"><g transform="translate(1810.496736, 1095.682615)"><g><path d="M 16.46875 -258.238281 C 25.035156 -258.238281 35.574219 -260.214844 44.136719 -260.214844 C 53.359375 -260.214844 59.949219 -257.582031 59.949219 -247.042969 L 59.949219 -64.558594 C 59.949219 -52.703125 53.359375 -41.503906 42.160156 -36.234375 C 37.550781 -33.597656 32.9375 -30.960938 28.984375 -28.328125 C 17.785156 -20.421875 24.375 0 37.550781 0 L 225.960938 0 C 239.792969 0 246.382812 -20.421875 234.523438 -28.328125 C 230.570312 -30.960938 227.277344 -33.597656 223.324219 -35.574219 C 213.445312 -42.160156 206.195312 -53.359375 206.195312 -64.558594 L 206.195312 -175.894531 C 209.492188 -209.492188 232.546875 -248.359375 261.535156 -249.015625 C 293.15625 -249.675781 289.863281 -207.515625 289.863281 -171.941406 L 289.203125 -65.21875 C 289.863281 -31.621094 300.402344 0 348.492188 0 L 457.191406 0 C 471.023438 0 476.953125 -20.421875 465.753906 -28.328125 C 461.800781 -30.960938 458.507812 -33.597656 454.554688 -35.574219 C 444.015625 -42.160156 437.425781 -53.359375 437.425781 -64.558594 L 437.425781 -216.078125 C 437.425781 -288.542969 403.171875 -318.847656 319.507812 -317.53125 C 272.734375 -316.210938 230.570312 -291.179688 206.195312 -254.289062 C 206.195312 -310.285156 183.140625 -316.871094 134.390625 -316.871094 C 92.230469 -316.871094 41.503906 -306.332031 11.859375 -289.203125 C -1.976562 -281.957031 1.976562 -259.558594 16.46875 -258.238281 Z M 16.46875 -258.238281 "/></g></g></g><g fill="#355c7d" fill-opacity="1"><g transform="translate(2291.346927, 1095.682615)"><g><path d="M 7.90625 -154.152344 C 10.539062 -48.089844 79.710938 9.222656 189.070312 9.222656 C 283.273438 9.222656 348.492188 -23.714844 365.621094 -104.746094 C 368.253906 -119.898438 364.304688 -128.460938 351.128906 -130.4375 C 338.609375 -131.753906 330.707031 -125.167969 327.410156 -110.675781 C 318.1875 -69.171875 286.566406 -46.773438 245.066406 -46.773438 C 206.855469 -47.433594 177.210938 -66.535156 158.765625 -114.628906 C 167.328125 -113.308594 177.871094 -112.652344 189.070312 -112.652344 C 261.535156 -112.652344 370.890625 -144.929688 358.375 -220.03125 C 349.152344 -273.390625 290.519531 -317.53125 198.292969 -317.53125 C 88.933594 -317.53125 5.269531 -260.875 7.90625 -154.152344 Z M 179.847656 -279.320312 C 217.394531 -287.226562 249.675781 -232.546875 235.183594 -183.140625 C 225.960938 -149.542969 179.1875 -144.929688 149.542969 -147.566406 C 134.390625 -216.078125 150.199219 -273.390625 179.847656 -279.320312 Z M 179.847656 -279.320312 "/></g></g></g><g fill="#355c7d" fill-opacity="1"><g transform="translate(2676.027101, 1095.682615)"><g><path d="M 27.011719 0 L 115.945312 0 C 129.777344 0 135.707031 -20.421875 124.507812 -28.328125 C 120.554688 -30.960938 116.601562 -33.597656 113.308594 -35.574219 C 102.769531 -42.160156 95.523438 -53.359375 96.179688 -64.558594 L 106.722656 -366.28125 L 238.476562 -18.445312 C 243.089844 -7.246094 253.628906 0 265.488281 0 L 296.449219 0 C 308.308594 0 318.1875 -7.246094 322.800781 -18.445312 L 445.992188 -364.304688 L 461.144531 -64.558594 C 460.484375 -52.703125 453.898438 -41.503906 442.699219 -36.234375 C 438.085938 -33.597656 433.476562 -30.960938 429.523438 -28.328125 C 418.980469 -20.421875 424.910156 0 438.085938 0 L 641.648438 0 C 655.480469 0 662.070312 -20.421875 650.871094 -28.328125 C 646.917969 -30.960938 642.964844 -33.597656 639.011719 -35.574219 C 629.132812 -42.160156 622.542969 -53.359375 622.542969 -64.558594 L 605.414062 -415.027344 C 606.074219 -425.570312 612.660156 -436.109375 621.882812 -442.039062 C 625.835938 -444.015625 629.789062 -446.648438 633.742188 -449.285156 C 644.941406 -457.191406 638.355469 -477.613281 624.519531 -477.613281 L 465.097656 -477.613281 C 453.238281 -477.613281 442.699219 -470.367188 438.085938 -459.167969 L 343.222656 -201.585938 L 239.136719 -459.167969 C 234.523438 -470.367188 223.984375 -477.613281 212.125 -477.613281 L 40.183594 -477.613281 C 27.011719 -477.613281 21.082031 -457.191406 32.28125 -449.285156 C 35.574219 -446.648438 40.183594 -444.015625 45.457031 -441.378906 C 54.679688 -436.769531 61.265625 -428.203125 62.582031 -418.324219 L 50.066406 -64.558594 C 50.066406 -52.703125 42.820312 -41.503906 32.28125 -36.234375 C 27.011719 -33.597656 22.398438 -30.960938 19.105469 -28.328125 C 7.90625 -20.421875 13.835938 0 27.011719 0 Z M 27.011719 0 "/></g></g></g><g fill="#355c7d" fill-opacity="1"><g transform="translate(3345.265244, 1095.682615)"><g><path d="M 23.058594 -238.476562 C 23.058594 -88.277344 113.308594 8.5625 281.296875 8.5625 C 449.285156 8.5625 540.855469 -88.277344 540.195312 -238.476562 C 540.195312 -388.679688 449.285156 -486.175781 281.296875 -486.175781 C 113.308594 -486.175781 23.058594 -388.679688 23.058594 -238.476562 Z M 256.921875 -445.332031 C 326.753906 -453.898438 359.691406 -371.550781 374.84375 -249.675781 C 389.335938 -128.460938 377.480469 -40.84375 306.988281 -32.28125 C 237.160156 -23.714844 202.902344 -105.402344 188.410156 -227.277344 C 173.257812 -349.152344 187.09375 -436.769531 256.921875 -445.332031 Z M 256.921875 -445.332031 "/></g></g></g><g fill="#355c7d" fill-opacity="1"><g transform="translate(3901.865756, 1095.682615)"><g><path d="M 23.058594 -238.476562 C 23.058594 -88.277344 113.308594 8.5625 281.296875 8.5625 C 449.285156 8.5625 540.855469 -88.277344 540.195312 -238.476562 C 540.195312 -388.679688 449.285156 -486.175781 281.296875 -486.175781 C 113.308594 -486.175781 23.058594 -388.679688 23.058594 -238.476562 Z M 256.921875 -445.332031 C 326.753906 -453.898438 359.691406 -371.550781 374.84375 -249.675781 C 389.335938 -128.460938 377.480469 -40.84375 306.988281 -32.28125 C 237.160156 -23.714844 202.902344 -105.402344 188.410156 -227.277344 C 173.257812 -349.152344 187.09375 -436.769531 256.921875 -445.332031 Z M 256.921875 -445.332031 "/></g></g></g><g fill="#355c7d" fill-opacity="1"><g transform="translate(4458.466269, 1095.682615)"><g><path d="M 19.105469 -447.308594 C 22.398438 -445.332031 27.011719 -442.699219 32.28125 -440.0625 C 42.820312 -434.132812 50.066406 -422.933594 50.066406 -411.078125 L 50.066406 -64.558594 C 50.066406 -52.703125 42.820312 -41.503906 32.28125 -36.234375 C 27.011719 -33.597656 22.398438 -30.960938 19.105469 -28.328125 C 7.90625 -20.421875 13.835938 0 27.011719 0 L 238.476562 0 C 421.617188 0 535.585938 -78.394531 535.585938 -237.816406 C 535.585938 -397.242188 420.300781 -476.953125 238.476562 -476.296875 L 27.011719 -475.636719 C 13.835938 -475.636719 7.90625 -455.214844 19.105469 -447.308594 Z M 211.46875 -59.289062 L 211.46875 -416.347656 C 211.46875 -428.203125 219.371094 -436.769531 231.230469 -436.769531 C 330.046875 -436.109375 374.183594 -372.207031 374.183594 -237.160156 C 374.183594 -102.109375 328.730469 -39.527344 231.230469 -39.527344 C 219.371094 -39.527344 211.46875 -47.433594 211.46875 -59.289062 Z M 211.46875 -59.289062 "/></g></g></g></svg>